<?xml version="1.0" standalone="no"?>
<!DOCTYPE svg PUBLIC "-//W3C//DTD SVG 20010904//EN"
 "http://www.w3.org/TR/2001/REC-SVG-20010904/DTD/svg10.dtd">
<svg version="1.0" xmlns="http://www.w3.org/2000/svg"
 width="300.000000pt" height="300.000000pt" viewBox="0 0 300.000000 300.000000"
 preserveAspectRatio="xMidYMid meet">
<metadata>
Created by potrace 1.14, written by Peter Selinger 2001-2017
</metadata>
<g transform="translate(0.000000,300.000000) scale(0.100000,-0.100000)"
fill="#000000" stroke="none">
<path d="M77 2083 c-2 -5 -3 -282 -3 -618 l1 -610 137 -3 138 -3 2 273 3 272
29 -100 c16 -54 34 -119 41 -144 8 -25 31 -102 52 -172 l38 -128 148 0 147 0
0 620 0 620 -138 0 -137 0 0 -275 c0 -150 -3 -271 -6 -267 -3 4 -38 108 -78
232 -39 124 -79 244 -87 268 l-16 42 -133 0 c-74 0 -136 -3 -138 -7z"/>
<path d="M885 2068 c3 -13 19 -88 36 -168 17 -80 32 -152 34 -160 2 -8 13 -60
23 -114 l20 -99 -33 -196 c-18 -108 -36 -212 -39 -231 -3 -19 -8 -46 -10 -60
-3 -14 -10 -55 -16 -92 -5 -37 -13 -74 -16 -83 -6 -14 12 -15 157 -13 l163 3
13 80 c13 84 17 116 29 205 3 30 8 62 10 70 1 8 3 26 3 39 1 29 13 21 17 -11
4 -31 42 -225 54 -268 5 -19 14 -54 20 -77 l11 -43 149 0 c123 0 150 3 150 14
0 8 -21 97 -46 198 -25 101 -47 190 -49 198 -2 8 -18 73 -35 143 l-33 128 17
82 c10 45 19 89 21 98 2 9 6 33 9 54 4 20 8 40 10 44 2 3 7 22 10 41 3 19 12
69 21 110 9 41 19 88 21 103 l5 28 -138 -3 -138 -3 -17 -80 c-9 -44 -19 -96
-23 -115 -11 -68 -15 -85 -24 -115 -7 -22 -10 -25 -11 -10 -2 27 -8 60 -21
120 -6 28 -13 64 -16 80 -3 17 -6 35 -8 40 -1 6 -5 27 -10 48 l-7 37 -159 0
-159 0 5 -22z"/>
<path d="M1655 2048 c3 -24 8 -65 10 -93 7 -63 14 -120 20 -165 3 -19 7 -57
10 -85 7 -62 15 -130 20 -170 2 -16 7 -57 10 -90 3 -33 8 -71 10 -85 2 -14 6
-47 9 -75 10 -89 18 -158 21 -174 1 -9 8 -71 15 -138 l13 -123 207 0 207 0 11
72 c6 40 14 93 17 118 3 25 8 56 10 70 2 14 7 45 10 70 3 25 10 71 15 104 5
32 9 61 8 65 -3 13 15 122 19 117 2 -2 6 -17 8 -33 2 -15 8 -64 14 -108 6 -44
13 -102 17 -130 3 -27 17 -113 30 -190 13 -77 24 -143 24 -147 0 -5 95 -8 210
-8 161 0 210 3 211 13 2 25 6 63 12 107 3 25 11 90 17 145 6 55 13 111 15 125
5 35 19 159 30 260 3 30 10 89 15 130 6 41 12 95 14 120 3 25 9 83 15 130 6
47 13 113 17 148 l6 62 -161 0 c-160 0 -161 0 -162 -22 0 -13 -2 -32 -4 -43
-4 -21 -30 -233 -40 -325 -3 -30 -8 -68 -10 -85 -2 -16 -7 -73 -11 -125 -4
-52 -8 -108 -10 -125 -1 -16 -3 -47 -3 -68 -2 -69 -18 -30 -20 47 -1 42 -4 84
-6 94 -2 10 -6 66 -10 123 -4 57 -8 120 -10 139 -2 19 -6 71 -9 115 -9 109
-18 207 -21 225 -2 8 -4 23 -4 33 -1 15 -16 17 -171 17 -106 0 -170 -4 -171
-10 -1 -5 -2 -13 -3 -17 -2 -5 -6 -35 -10 -68 -5 -33 -10 -67 -11 -76 -2 -9
-6 -52 -10 -95 -4 -43 -9 -81 -10 -84 -2 -3 -6 -37 -10 -75 -4 -39 -8 -84 -10
-100 -7 -63 -18 -202 -19 -237 -1 -49 -16 -49 -17 0 -1 20 -3 46 -4 57 -1 11
-5 65 -9 120 -4 55 -9 118 -11 140 -3 22 -7 69 -10 105 -4 55 -12 167 -20 260
-1 14 -3 37 -4 53 l-1 27 -160 0 -160 0 5 -42z m382 -790 c-3 -8 -6 -5 -6 6
-1 11 2 17 5 13 3 -3 4 -12 1 -19z"/>
</g>
</svg>
